<?xml version="1.0" encoding="UTF-8" standalone="no"?>
<!-- Generator: Adobe Illustrator 24.0.0, SVG Export Plug-In . SVG Version: 6.00 Build 0)  -->

<svg
   version="1.1"
   id="Layer_1"
   x="0px"
   y="0px"
   viewBox="0 0 168.3 193.8"
   style="enable-background:new 0 0 168.3 193.8;"
   xml:space="preserve"
   sodipodi:docname="uniswap-logo.svg"
   inkscape:version="1.1.2 (b8e25be833, 2022-02-05)"
   xmlns:inkscape="http://www.inkscape.org/namespaces/inkscape"
   xmlns:sodipodi="http://sodipodi.sourceforge.net/DTD/sodipodi-0.dtd"
   xmlns="http://www.w3.org/2000/svg"
   xmlns:svg="http://www.w3.org/2000/svg"><defs
   id="defs25" /><sodipodi:namedview
   id="namedview23"
   pagecolor="#ffffff"
   bordercolor="#666666"
   borderopacity="1.0"
   inkscape:pageshadow="2"
   inkscape:pageopacity="0.0"
   inkscape:pagecheckerboard="0"
   showgrid="false"
   inkscape:zoom="1.8550051"
   inkscape:cx="50.943255"
   inkscape:cy="112.66815"
   inkscape:window-width="1920"
   inkscape:window-height="1017"
   inkscape:window-x="-8"
   inkscape:window-y="-8"
   inkscape:window-maximized="1"
   inkscape:current-layer="Layer_1" />
<style
   type="text/css"
   id="style2">
	.st0{fill:#FF007A;}
	.st1{fill-rule:evenodd;clip-rule:evenodd;fill:#FF007A;}
</style>
<path
   id="path4"
   class="st0"
   d="M 0 0 C -0.1 0 1.5003906 1.9007813 3.4003906 4.3007812 C 26.700391 32.600781 62.600391 76.6 64.400391 79 C 65.900391 81 65.300781 82.900781 62.800781 84.300781 C 61.400781 85.100781 58.499609 85.900391 57.099609 85.900391 C 55.499609 85.900391 53.600781 85.100781 52.300781 83.800781 C 51.400781 82.900781 47.499219 77.2 38.699219 63.5 C 31.999219 53 26.299219 44.299219 26.199219 44.199219 C 25.799219 43.999219 25.8 44.000781 38 65.800781 C 45.7 79.500781 48.199219 84.4 48.199219 85 C 48.199219 86.3 47.799219 87.000781 46.199219 88.800781 C 43.499219 91.800781 42.300391 95.200781 41.400391 102.30078 C 40.400391 110.20078 37.7 115.80078 30 125.30078 C 25.5 130.90078 24.799219 131.89922 23.699219 134.19922 C 22.299219 136.99922 21.899219 138.59922 21.699219 142.19922 C 21.499219 145.99922 21.9 148.4 23 152 C 24 155.2 25.100781 157.30039 27.800781 161.40039 C 30.100781 165.00039 31.5 167.69922 31.5 168.69922 C 31.5 169.49922 31.700781 169.49922 35.300781 168.69922 C 43.900781 166.69922 51.000391 163.29961 54.900391 159.09961 C 57.300391 156.49961 57.900391 155.1 57.900391 151.5 C 57.900391 149.2 57.799219 148.70078 57.199219 147.30078 C 56.199219 145.10078 54.299219 143.3 50.199219 140.5 C 44.799219 136.8 42.500391 133.80078 41.900391 129.80078 C 41.400391 126.40078 42 124.10078 45 117.80078 C 48.1 111.30078 48.900391 108.6 49.400391 102 C 49.700391 97.8 50.200391 96.100781 51.400391 94.800781 C 52.700391 93.400781 53.800391 92.9 56.900391 92.5 C 62.000391 91.8 65.300391 90.5 67.900391 88 C 70.200391 85.9 71.200781 83.799219 71.300781 80.699219 L 71.400391 78.400391 L 70.099609 77 C 65.399609 71.6 0.3 -9.4739031e-15 0 0 z M 66.634766 43.5 C 65.906641 43.49375 65.275781 43.524609 64.800781 43.599609 C 63.800781 43.699609 63.9 43.799609 66 44.099609 C 73.7 45.299609 79.6 48.3 85.5 54 C 88.2 56.6 90.899219 59.700391 95.199219 65.400391 C 104.89922 78.300391 109.10078 81.8 117.30078 84.5 C 122.10078 86.1 126.99961 86.800781 135.59961 87.300781 C 145.09961 87.800781 148.69961 88.500781 152.09961 90.800781 C 153.99961 92.100781 155.40039 93.600391 156.90039 95.900391 L 157.80078 97.199219 L 157.59961 95.699219 C 156.99961 90.099219 153.00039 82.2 147.90039 76.5 L 147 75.5 L 146.5 77.599609 C 145.3 82.899609 142.80039 86.699219 140.40039 86.699219 C 139.30039 86.699219 138.09922 86 137.69922 85 C 137.19922 83.7 137.2 83.300781 138 81.800781 C 139.5 79.100781 139.79961 75.600391 139.09961 70.900391 C 138.89961 69.600391 138.60039 68.299609 138.40039 68.099609 C 137.90039 67.499609 133.79922 65.100391 131.19922 63.900391 C 121.69922 59.500391 110.29922 58.100391 99.199219 59.900391 L 96.599609 60.300781 L 94.800781 58.199219 C 87.900781 50.499219 81.399219 46.100391 74.199219 44.400391 C 71.874219 43.875391 68.819141 43.51875 66.634766 43.5 z M 143.19922 46.5 C 143.09922 46.5 142.70078 47.299219 142.30078 48.199219 C 141.20078 50.499219 140.7 53.000781 140.5 56.800781 C 140.4 59.300781 140.20039 60.100391 139.90039 60.400391 C 139.50039 60.500391 138.90039 60.4 135.40039 59 C 133.10039 58 127.2 56.3 127 56.5 C 126.9 56.5 128.09922 57.100781 129.69922 57.800781 C 131.19922 58.500781 133.80078 59.799219 135.30078 60.699219 C 141.40078 64.199219 142.40039 66.3 142.40039 75 C 142.40039 79.3 142.30078 79.899219 141.80078 81.199219 C 141.10078 82.899219 141.2 83.199219 142 81.699219 C 143.5 78.799219 144.09922 76 144.19922 71.5 C 144.19922 68.6 144.29922 67.999609 144.69922 67.599609 C 145.19922 67.099609 145.3 67.1 146 67.5 C 147.1 68 151.9 71.800781 154 73.800781 L 155.69922 75.400391 L 154 73.199219 C 153 71.999219 150.39922 69.100781 148.19922 66.800781 C 143.39922 61.900781 143.10039 61.300781 142.40039 56.800781 C 141.90039 53.300781 142.00078 50.2 142.80078 48 C 143.10078 47.2 143.29922 46.5 143.19922 46.5 z M 64 48.099609 L 63.800781 50.199219 C 63.200781 56.899219 65.899609 65.899219 70.099609 71.699219 C 73.399609 76.199219 78.500781 79.699609 82.300781 80.099609 C 84.800781 80.299609 85.500391 79.500391 84.400391 77.900391 C 82.800391 75.700391 80.900391 72.199219 80.400391 70.699219 C 80.100391 69.799219 79.400391 66.999609 78.900391 64.599609 C 77.200391 56.399609 75.400391 53.099219 71.400391 50.699219 C 69.900391 49.799219 66.8 48.600781 65 48.300781 L 64 48.099609 z M 108.69922 85.5 C 108.69922 85.5 108.59961 86.899609 108.59961 88.599609 C 108.59961 100.29961 115.60039 107.19922 135.40039 115.19922 C 148.60039 120.49922 153.99922 123.20078 158.19922 126.80078 C 161.69922 129.90078 163.8 133.89961 164 138.09961 C 164 138.89961 164.20078 139.40039 164.30078 139.40039 C 164.80078 139.30039 166.8 134.69922 167.5 132.19922 C 168.3 128.99922 168.59961 122.89922 168.09961 119.69922 C 166.29961 108.59922 158.79922 100.40039 146.69922 96.400391 C 142.89922 95.100391 138.70039 94.299219 131.40039 93.199219 C 118.90039 91.399219 114.40039 90.000781 110.40039 86.800781 C 109.50039 86.100781 108.79922 85.5 108.69922 85.5 z M 76.445312 93.65625 C 75.746948 93.665405 75.099609 93.744141 74.599609 93.900391 C 72.199609 94.600391 69.899219 97.200781 69.199219 99.800781 C 68.799219 101.40078 68.999219 104.29922 69.699219 105.19922 C 70.799219 106.59922 71.799609 107 74.599609 107 C 80.099609 107 84.800781 104.59922 85.300781 101.69922 C 85.800781 99.299219 83.700781 96 80.800781 94.5 C 79.769531 93.95 77.981714 93.636108 76.445312 93.65625 z M 119.90039 112.80078 L 120.40039 114.30078 C 120.70039 115.10078 121.20039 117 121.40039 118.5 C 123.00039 127.9 118.09922 135.59922 108.19922 138.69922 C 107.19922 139.09922 103.20078 139.9 99.300781 140.5 C 91.400781 141.9 87.800781 142.8 84.300781 144.5 C 81.800781 145.7 78.700391 147.49922 78.900391 147.69922 C 79.000391 147.79922 79.599219 147.60039 80.199219 147.40039 C 84.699219 145.80039 89.699219 144.99961 97.199219 144.59961 C 100.19922 144.39961 103.60078 144.1 104.80078 144 C 111.50078 143.1 116.20078 141.10039 119.80078 137.40039 C 121.80078 135.30039 123 133.39922 124 130.69922 C 124.6 128.99922 124.69922 128.30078 124.69922 125.30078 C 124.69922 122.20078 124.7 121.59922 124 119.69922 C 123.1 117.19922 122.10078 115.40039 120.80078 113.90039 L 119.90039 112.80078 z M 129.30078 117.40039 C 129.10078 117.40039 128.89922 117.90039 128.69922 118.40039 C 127.29922 123.50039 127.9 128.89961 130.5 134.59961 C 131.9 137.49961 133.19922 139.59961 138.69922 147.59961 C 143.29922 154.49961 145.59922 158.6 146.69922 162 C 148.49922 167.5 148.20078 172.4 145.80078 177.5 C 145.20078 178.7 144.80039 179.69922 144.90039 179.69922 C 145.00039 179.69922 145.9 179.29922 147 178.69922 C 154.3 174.79922 159.3 168 161.5 159.5 C 162.2 156.8 162.5 150.29961 162 147.59961 C 161.2 142.79961 159.49922 138.9 156.69922 135.5 C 153.49922 131.6 148.90078 128.20078 140.80078 123.80078 C 134.40078 120.30078 131.89922 118.89961 130.69922 118.09961 C 130.09922 117.69961 129.50078 117.40039 129.30078 117.40039 z M 85.693359 152.85742 C 83.937305 152.8627 82.250391 152.97422 80.900391 153.19922 C 72.500391 154.59922 63.4 158.99922 56 165.19922 L 53.900391 167.19922 L 55.800781 167.5 C 65.800781 169 68.5 170.39961 75.5 177.59961 C 79.5 181.69961 80.899219 182.6 84.199219 183.5 C 89.099219 184.8 93.899609 182.49961 95.599609 178.09961 C 96.299609 176.09961 96.200391 172.90078 95.400391 171.30078 C 93.400391 167.40078 87.499219 166.2 84.699219 169 C 82.399219 171.3 83.1 174.9 86 175.5 C 86.6 175.6 86.600781 175.59922 85.800781 175.19922 C 84.500781 174.59922 83.900391 173.8 83.900391 172.5 C 83.800391 169.4 87.3 167.79922 90.5 169.19922 C 92.9 170.29922 93.800781 171.69961 93.800781 174.09961 C 93.800781 177.79961 90.600391 180.69922 86.900391 180.19922 C 84.900391 179.89922 82.499219 178.69922 81.199219 177.19922 C 77.999219 173.59922 79.200781 167.7 83.800781 165.5 C 87.300781 163.8 91.9 164.29961 95.5 166.59961 C 99.6 169.29961 101.40039 171.70078 104.90039 179.80078 C 106.10039 182.50078 107.49922 185.40039 108.19922 186.40039 C 111.49922 191.40039 115.60039 193.90039 120.40039 193.90039 C 123.10039 193.90039 125.09961 193.49922 127.59961 192.19922 C 129.39961 191.29922 132.10039 189.50078 131.90039 189.30078 C 131.90039 189.20078 131.09922 189.50078 130.19922 189.80078 C 124.89922 191.80078 119.50039 191.70039 116.40039 189.40039 C 114.40039 187.90039 112.8 185.1 112 181.5 C 111.9 180.9 111.4 178.10039 111 175.40039 C 109.9 168.50039 108.80039 165.40078 106.40039 161.80078 C 103.90039 158.10078 99.100781 155.09922 93.800781 153.69922 C 91.738281 153.13672 88.620117 152.84863 85.693359 152.85742 z "
   style="fill:#ffffff" />








</svg>
