<?xml version="1.0" encoding="UTF-8" standalone="no"?>
<!-- Created with Inkscape (http://www.inkscape.org/) -->

<svg
   width="40.937267mm"
   height="42.434101mm"
   viewBox="0 0 40.937269 42.434103"
   version="1.1"
   id="svg34153"
   xmlns:xlink="http://www.w3.org/1999/xlink"
   xmlns="http://www.w3.org/2000/svg"
   xmlns:svg="http://www.w3.org/2000/svg">
  <defs
     id="defs34150">
    <linearGradient
       id="linearGradient41310">
      <stop
         style="stop-color:#024eab;stop-opacity:1"
         offset="0"
         id="stop41306" />
      <stop
         style="stop-color:#13e0f7;stop-opacity:1"
         offset="1"
         id="stop41308" />
    </linearGradient>
    <linearGradient
       xlink:href="#linearGradient41310"
       id="linearGradient41312"
       x1="655.26562"
       y1="287.88477"
       x2="729.87201"
       y2="447.29053"
       gradientUnits="userSpaceOnUse"
       gradientTransform="matrix(0.26458333,0,0,0.26458333,-119.51017,35.534352)" />
  </defs>
  <g
     id="layer1"
     transform="translate(-43.247222,-111.70386)">
    <path
       id="rect34483"
       style="opacity:1;fill:url(#linearGradient41312);fill-opacity:1;stroke-width:0.799999;stroke-linecap:round;paint-order:fill markers stroke;stop-color:#000000"
       d="m 53.862193,111.70386 c -0.525272,0 -1.067062,0.40584 -1.214395,0.91002 l -5.274614,18.05006 c -0.147331,0.50419 0.157374,0.91003 0.682646,0.91003 h 18.211292 c 0.525274,0 1.066546,-0.40584 1.213879,-0.91003 l 5.274614,-18.05006 c 0.147333,-0.50418 -0.156855,-0.91002 -0.68213,-0.91002 z m 19.455146,8.46357 c -0.301535,0 -0.612024,0.23302 -0.6966,0.52245 L 69.5925,131.05152 c -0.08458,0.28943 0.09018,0.52245 0.391708,0.52245 H 80.43835 c 0.301533,0 0.612537,-0.23302 0.697114,-0.52245 l 3.027722,-10.36164 c 0.08458,-0.28943 -0.09018,-0.52245 -0.391707,-0.52245 z m -26.323975,14.09991 c -0.301532,0 -0.61254,0.23302 -0.697116,0.52245 l -3.027723,10.36164 c -0.08458,0.28943 0.09018,0.52245 0.391708,0.52245 h 10.454143 c 0.301532,0 0.61202,-0.23302 0.696597,-0.52245 l 3.028241,-10.36164 c 0.08457,-0.28943 -0.09017,-0.52245 -0.391708,-0.52245 z m 14.171226,0 c -0.525272,0 -1.066546,0.40584 -1.213879,0.91003 l -5.274612,18.05006 c -0.147333,0.50418 0.156856,0.91053 0.682128,0.91053 h 18.211292 c 0.525274,0 1.067064,-0.40635 1.214395,-0.91053 l 5.274614,-18.05006 c 0.147333,-0.50419 -0.157372,-0.91003 -0.682646,-0.91003 z" />
  </g>
</svg>
