<?xml version="1.0" encoding="UTF-8" standalone="no"?>
<!-- Created with Inkscape (http://www.inkscape.org/) -->

<svg
   width="120.33617mm"
   height="150.1787mm"
   viewBox="0 0 120.33617 150.1787"
   version="1.1"
   id="svg34153"
   inkscape:version="1.1.2 (b8e25be833, 2022-02-05)"
   sodipodi:docname="logo01.svg"
   xmlns:inkscape="http://www.inkscape.org/namespaces/inkscape"
   xmlns:sodipodi="http://sodipodi.sourceforge.net/DTD/sodipodi-0.dtd"
   xmlns="http://www.w3.org/2000/svg"
   xmlns:svg="http://www.w3.org/2000/svg">
  <sodipodi:namedview
     id="namedview34155"
     pagecolor="#ffffff"
     bordercolor="#666666"
     borderopacity="1.0"
     inkscape:pageshadow="2"
     inkscape:pageopacity="0.0"
     inkscape:pagecheckerboard="0"
     inkscape:document-units="mm"
     showgrid="false"
     inkscape:zoom="0.64052329"
     inkscape:cx="187.34682"
     inkscape:cy="413.72422"
     inkscape:window-width="1920"
     inkscape:window-height="1017"
     inkscape:window-x="-8"
     inkscape:window-y="-8"
     inkscape:window-maximized="1"
     inkscape:current-layer="layer1" />
  <defs
     id="defs34150" />
  <g
     inkscape:label="Layer 1"
     inkscape:groupmode="layer"
     id="layer1"
     transform="translate(-35.510144,-47.387004)">
    <path
       id="circle21945"
       style="color:#000000;fill:#ab225c;fill-opacity:1;stroke-width:1;stroke-linecap:round;-inkscape-stroke:none;paint-order:fill markers stroke"
       d="m 95.679659,47.387004 c -33.229593,0 -60.169515,27.542831 -60.169515,61.786296 0,23.07219 7.460554,45.1292 18.697148,61.44708 11.236584,16.31787 26.270166,26.93106 41.470048,26.94531 15.19221,0.0142 30.22908,-10.59841 41.46775,-26.92332 11.23866,-16.32491 18.70123,-38.39682 18.70123,-61.46907 0,-34.243465 -26.93704,-61.786296 -60.166661,-61.786296 z m 0,0.894919 c 1.526214,0 3.038779,0.05903 4.535941,0.174812 2.12719,35.238709 1.66178,69.938205 0.61593,104.358505 -0.12145,0.10092 -0.24415,0.18674 -0.36528,0.29174 -1.016773,0.88144 -2.884417,1.38405 -4.760547,1.38232 -1.876091,-0.002 -3.746099,-0.50824 -4.767474,-1.38926 -0.119879,-0.10339 -0.240946,-0.19296 -0.361218,-0.29233 -1.045704,-34.41877 -1.511288,-69.116735 0.615932,-104.353865 1.480987,-0.113304 2.977388,-0.171922 4.486716,-0.171922 z m -5.389152,0.251801 c -2.105163,34.978271 -1.661367,69.412206 -0.63214,103.552156 -3.703847,-2.72951 -7.593338,-3.64174 -11.783827,-3.4228 -1.018697,-11.2117 -1.672838,-22.52587 -1.831509,-34.04793 4.421691,-2.2003 7.46322,-6.76564 7.46322,-12.03564 0,-5.102454 -2.850754,-9.544252 -7.045299,-11.817988 0.636465,-13.117144 1.961235,-26.565956 4.200795,-40.514377 3.116994,-0.832627 6.33403,-1.409824 9.62876,-1.713421 z m 10.827563,0.0045 c 3.29591,0.306565 6.5139,0.887257 9.63163,1.723267 2.23811,13.938944 3.58561,27.389985 4.22276,40.498739 -4.19577,2.273367 -7.04761,6.71577 -7.04759,11.81916 0,5.2665 3.03759,9.82902 7.45454,12.03101 -0.158,11.49506 -0.81168,22.78219 -1.8286,33.96688 -0.49338,-0.025 -0.98412,-0.0356 -1.47148,-0.0272 -3.59237,0.0622 -7.02118,1.07634 -10.32858,3.53163 1.0291,-34.13727 1.47207,-68.568007 -0.63268,-103.543478 z m -21.405077,1.971024 c -2.184146,13.698804 -3.490691,26.919339 -4.130146,39.816841 -1.681519,-0.757968 -3.546767,-1.180291 -5.509603,-1.180291 -2.466326,0 -4.777991,0.667235 -6.765695,1.829189 0.914466,-11.860726 2.804536,-23.954535 5.97671,-36.357576 3.312395,-1.689752 6.79967,-3.072115 10.428734,-4.108163 z m 31.980247,0.01277 c 3.63233,1.040338 7.12236,2.428448 10.43682,4.123789 3.16657,12.388098 5.05445,24.467659 5.96863,36.314741 -1.98214,-1.153026 -4.28471,-1.814717 -6.74081,-1.814717 -1.96375,0 -3.8298,0.422816 -5.51191,1.181446 -0.64003,-12.890244 -1.9698,-26.11461 -4.15273,-39.805259 z m -43.468878,4.649403 c -3.126414,12.419417 -4.980124,24.531295 -5.859205,36.407927 -3.46188,2.430963 -5.727227,6.453114 -5.727227,11.000072 0,4.28903 2.015361,8.11154 5.149527,10.57228 0.243803,13.05682 1.506863,25.86762 3.388051,38.53004 -3.167872,1.11057 -6.556304,2.41264 -10.178076,3.73943 -6.371825,-29.56127 -8.551434,-53.15944 0.02834,-90.607111 3.931127,-3.801244 8.36897,-7.053027 13.198568,-9.642638 z m 54.969068,0.03181 c 4.8327,2.598494 9.27251,5.859888 13.20322,9.672155 8.57436,37.460284 6.37635,61.062274 -0.0112,90.660954 -3.57128,-1.32342 -6.94975,-2.66997 -10.15491,-3.83957 1.88163,-12.66161 3.14541,-25.47184 3.39037,-38.52773 3.14698,-2.46008 5.17211,-6.29038 5.17211,-10.58964 0,-4.557257 -2.27581,-8.587048 -5.75097,-11.016285 -0.87864,-11.861331 -2.7287,-23.957235 -5.8488,-36.359884 z M 53.841448,65.988518 c -8.251321,36.823942 -6.012197,60.415672 0.310867,89.746352 -2.029463,0.73608 -4.147487,1.46868 -6.344313,2.17594 -7.044145,-14.24237 -11.400642,-31.20104 -11.400642,-48.73765 0,-16.925128 6.664992,-32.177815 17.434088,-43.184642 z m 83.737802,0.06363 c 10.73175,11.001899 17.37042,26.228676 17.37042,43.120962 0,17.55539 -4.36875,34.54052 -11.42844,48.79958 -2.16834,-0.66063 -4.26345,-1.37656 -6.29218,-2.1169 6.33859,-29.36977 8.59518,-52.96746 0.3502,-89.803642 z M 70.073244,90.042961 c 6.929687,0 12.536352,5.606686 12.536352,12.536359 0,6.92969 -5.606665,12.53809 -12.536352,12.53809 -6.929686,0 -12.538098,-5.6084 -12.538098,-12.53809 0,-6.929673 5.608412,-12.536359 12.538098,-12.536359 z m 51.284636,0 c 6.92969,0 12.5381,5.606686 12.5381,12.536359 0,6.92969 -5.60841,12.53809 -12.5381,12.53809 -6.92969,0 -12.53637,-5.6084 -12.53637,-12.53809 0,-6.929673 5.60668,-12.536359 12.53637,-12.536359 z M 62.694518,113.80398 c 2.118651,1.3965 4.654315,2.21067 7.378726,2.21067 1.795955,0 3.50951,-0.35479 5.076033,-0.99565 0.168103,11.40443 0.820955,22.60419 1.829167,33.7012 -1.641148,0.14579 -3.328413,0.45289 -5.069625,0.88392 -1.883114,0.46614 -3.840383,1.07862 -5.8737,1.77536 -1.830679,-12.35994 -3.068827,-24.85384 -3.340601,-37.5755 z m 66.017762,0.0157 c -0.27255,12.71649 -1.50983,25.20534 -3.34001,37.56044 -1.78481,-0.63676 -3.52253,-1.20964 -5.21554,-1.66885 -1.78466,-0.48408 -3.52744,-0.84241 -5.23347,-1.02632 -0.16173,-0.0175 -0.32112,-0.0234 -0.48217,-0.0376 1.00641,-11.07479 1.65832,-22.25205 1.8257,-33.63405 1.57056,0.64473 3.28946,1.00143 5.09109,1.00143 2.71406,0 5.24064,-0.80825 7.3544,-2.19503 z m -16.29722,35.59984 c 0.35043,5.6e-4 0.70349,0.0142 1.05819,0.0331 -0.21197,2.28722 -0.44074,4.56987 -0.6819,6.84964 -3.83734,0.28405 -7.51717,1.27173 -11.27157,3.18198 0.0672,-2.07728 0.13099,-4.15666 0.19451,-6.23605 3.44125,-2.757 6.95284,-3.83453 10.70077,-3.82857 z m -32.937099,0.0839 c 3.621335,0.0674 6.960659,1.15034 10.216296,3.74233 0.06295,2.06254 0.126701,4.12464 0.193351,6.18511 -3.540146,-1.69991 -7.209851,-2.65991 -11.24261,-2.94466 -0.244867,-2.31242 -0.478051,-4.6274 -0.692898,-6.94746 0.513683,-0.0279 1.023536,-0.0447 1.525861,-0.0353 z m 34.885569,0.0179 c 1.79068,0.16524 3.63674,0.53263 5.55936,1.05411 1.71442,0.46502 3.48401,1.05083 5.31393,1.70821 -0.24795,1.64704 -0.50731,3.29163 -0.77511,4.9342 -1.96494,-0.38255 -3.85217,-0.67094 -5.67919,-0.83818 -1.65431,-0.15145 -3.26137,-0.20432 -4.83925,-0.14472 -0.0829,0.003 -0.16505,0.009 -0.24774,0.0128 0.23612,-2.23853 0.46001,-4.48037 0.668,-6.72635 z m -37.306932,0.0782 c 0.211408,2.28303 0.439148,4.56154 0.679591,6.83691 -1.301941,-0.0589 -2.63994,-0.0543 -4.026554,0.0197 -2.132821,0.11376 -4.376974,0.38201 -6.759333,0.79246 -0.269611,-1.65314 -0.530217,-3.30839 -0.779733,-4.96603 2.072791,-0.7142 4.058927,-1.34137 5.952414,-1.8101 1.712043,-0.4238 3.351443,-0.72662 4.933615,-0.87291 z m -11.742146,2.98402 c 0.242997,1.60989 0.49528,3.2177 0.757151,4.82306 -3.109332,0.57292 -6.456789,1.38149 -10.105736,2.40747 -0.264369,-1.17961 -0.522925,-2.34945 -0.775084,-3.50904 3.619106,-1.32232 6.987151,-2.61687 10.123669,-3.72149 z m 60.776758,0.0208 c 3.16879,1.16288 6.52965,2.49946 10.10053,3.81873 -0.25305,1.16238 -0.51217,2.3352 -0.77743,3.51773 -3.62847,-1.02872 -6.95531,-1.90429 -10.07503,-2.54871 0.25989,-1.59365 0.51059,-3.18965 0.75193,-4.78775 z m -35.477715,1.37016 c 1.292139,0.96783 3.192056,1.41008 5.092208,1.41184 1.900762,0.002 3.799872,-0.43738 5.089347,-1.40779 -0.0614,1.996 -0.12163,3.99238 -0.18638,5.98656 -0.1597,0.0874 -0.31926,0.17206 -0.47931,0.2628 -2.485851,1.4094 -6.174884,1.37085 -8.69621,-0.009 -0.211229,-0.11557 -0.423611,-0.22391 -0.635579,-0.33401 -0.06385,-1.96896 -0.123464,-3.94001 -0.184076,-5.91074 z m -36.268445,2.64134 c 0.247533,1.13816 0.500309,2.28605 0.759458,3.44305 -1.712816,0.49105 -3.491778,1.02761 -5.342855,1.60923 -0.530072,-0.96934 -1.049502,-1.95056 -1.553664,-2.94814 2.124005,-0.68578 4.173564,-1.39396 6.137061,-2.10414 z m 82.69065,0.12618 c 1.9594,0.71263 3.9878,1.40093 6.08382,2.0428 -0.5038,0.99575 -1.02296,1.97476 -1.5525,2.94234 -1.83789,-0.54032 -3.59573,-1.05347 -5.29309,-1.53919 0.25959,-1.158 0.51379,-2.30686 0.76177,-3.44595 z m -21.90056,0.36237 c 1.16441,-0.001 2.35101,0.0566 3.56692,0.16787 1.79743,0.16454 3.66234,0.45105 5.61205,0.83182 -0.32868,1.98992 -0.67122,3.97688 -1.02575,5.9611 -2.40192,-0.18738 -4.63245,-0.28911 -6.73272,-0.26918 -1.28737,0.0122 -2.5256,0.073 -3.72957,0.18292 0.27105,-2.27426 0.52791,-4.55168 0.77219,-6.83169 0.509,-0.0249 1.02,-0.0421 1.53688,-0.0428 z m -2.44107,0.0978 c -0.24632,2.29248 -0.50455,4.58234 -0.77798,6.86933 -3.78372,0.43643 -7.22464,1.4239 -10.66086,3.18777 0.0766,-2.25068 0.15746,-4.49706 0.23097,-6.75008 3.75606,-1.98422 7.39214,-3.00748 11.20787,-3.30702 z m -36.524281,0.0868 c 0.563407,0.002 1.116005,0.0209 1.663641,0.0475 0.224715,2.09381 0.460039,4.18533 0.70737,6.27426 -1.193218,-0.18615 -2.417957,-0.32469 -3.691401,-0.40752 -2.139004,-0.13913 -4.414074,-0.12616 -6.876838,0.0393 -0.300886,-1.701 -0.592901,-3.40378 -0.874666,-5.10901 2.355452,-0.40647 4.566617,-0.67096 6.659772,-0.78261 0.821527,-0.0438 1.624738,-0.0649 2.412122,-0.0619 z m 2.57245,0.10182 c 4.023899,0.30017 7.652695,1.2885 11.177204,3.0477 0.07404,2.27235 0.155982,4.53796 0.233273,6.80796 -3.53049,-1.62886 -6.95843,-2.8084 -10.68981,-3.48183 -0.252059,-2.12216 -0.491919,-4.24694 -0.720667,-6.37383 z m 46.450011,0.88797 c 3.08925,0.64024 6.40133,1.51128 10.02468,2.5383 -0.32718,1.44929 -0.67444,2.94362 -1.01823,4.42769 -3.65349,-0.45582 -7.00298,-0.85047 -10.01309,-1.10735 0.34803,-1.94998 0.68344,-3.90269 1.00664,-5.85864 z m -58.974208,0.0133 c 0.276702,1.6743 0.562231,3.34653 0.857304,5.01641 -3.007656,0.24362 -6.299294,0.71102 -9.98533,1.42109 -0.312379,-1.3519 -0.628903,-2.715 -0.927326,-4.03812 3.641129,-1.02457 6.972724,-1.83011 10.055352,-2.39938 z m 24.613671,2.62166 c 0.05735,0.0309 0.115175,0.0589 0.172527,0.0903 2.828811,1.54753 6.754444,1.5971 9.56737,0.002 6.3e-4,-3.5e-4 10e-4,-8.1e-4 0.002,-0.001 -0.0737,2.24971 -0.1537,4.49384 -0.23039,6.7414 -0.0705,0.039 -0.14079,0.0749 -0.2113,0.11461 -2.485134,1.3988 -6.106386,1.25356 -8.716451,-0.0179 -0.117751,-0.0574 -0.234517,-0.11146 -0.351943,-0.16787 -0.07695,-2.25435 -0.15773,-4.50515 -0.23156,-6.76166 z m -35.530382,0.022 c 0.29327,1.30091 0.603924,2.63997 0.910557,3.96808 -1.30939,0.26124 -2.664864,0.55039 -4.076323,0.87118 -0.659999,-1.08081 -1.304237,-2.18263 -1.931102,-3.30471 1.764008,-0.55291 3.462116,-1.06551 5.096868,-1.53455 z m 80.775769,0.12908 c 1.61842,0.46299 3.29573,0.95206 5.04535,1.46625 -0.63424,1.13425 -1.28562,2.24802 -1.95365,3.34002 -1.43294,-0.18191 -2.74607,-0.34658 -4.07807,-0.51403 0.33271,-1.4379 0.66919,-2.88631 0.98637,-4.29224 z m -64.808509,2.92151 c 2.655521,-0.0291 5.07899,0.15413 7.378132,0.53023 0.293348,2.44609 0.602915,4.88952 0.924458,7.33125 -3.32801,-0.57518 -6.699315,-0.98092 -10.244659,-1.23528 -0.414571,-2.16277 -0.811736,-4.32968 -1.199401,-6.49828 1.082871,-0.0725 2.130916,-0.11683 3.14147,-0.12792 z m -4.039279,0.19334 c 0.379656,2.12612 0.769629,4.24982 1.175071,6.36976 -3.16059,-0.20177 -6.476525,-0.28242 -10.020032,-0.2628 -0.374996,-1.58883 -0.733582,-3.13979 -1.092325,-4.68587 3.683101,-0.71141 6.957131,-1.17945 9.937286,-1.42109 z m 12.34011,0.49955 c 3.686887,0.69706 7.07915,1.90558 10.617437,3.57098 0.06945,2.0296 0.137432,4.06002 0.208417,6.08786 -3.353975,-0.95236 -6.612569,-1.72577 -9.89677,-2.32585 -0.32264,-2.44265 -0.634661,-4.88639 -0.929084,-7.33299 z m 36.994908,0.0115 c 2.04054,-0.0194 4.21693,0.0786 6.56659,0.26049 -0.32319,1.7901 -0.65365,3.5787 -0.99505,5.36487 -4.01317,0.2363 -7.2413,0.70334 -10.2713,1.32848 0.29608,-2.25118 0.58339,-4.50334 0.85556,-6.75819 1.23484,-0.11793 2.50985,-0.18299 3.8442,-0.19565 z m -4.75474,0.29349 c -0.27705,2.28796 -0.57129,4.57319 -0.8729,6.85773 -3.21426,0.7051 -6.29797,1.58749 -9.92573,2.55799 0.0712,-2.03495 0.13927,-4.07257 0.20898,-6.10928 3.42791,-1.83005 6.82067,-2.85165 10.58965,-3.30644 z m 12.21971,0.0382 c 2.9864,0.25343 6.32049,0.64581 9.96623,1.09984 -0.31424,1.35117 -0.62627,2.70179 -0.95279,4.08559 -3.36256,-0.0945 -6.27407,-0.0861 -8.86291,0.0101 l 5.6e-4,-5.8e-4 c -0.38586,0.0143 -0.75098,0.0345 -1.123,0.0526 0.33319,-1.7468 0.65612,-3.49638 0.97191,-5.24736 z m -67.615402,0.7531 c 0.345928,1.49201 0.690232,2.98361 1.051215,4.51453 -0.775768,0.008 -1.567296,0.0229 -2.366945,0.0405 -0.05074,-0.0733 -0.102719,-0.14467 -0.153406,-0.21823 -0.790196,-1.14752 -1.559444,-2.32733 -2.310815,-3.53104 1.30622,-0.2946 2.565046,-0.56282 3.779951,-0.80578 z m 78.473672,0.45904 c 1.22696,0.154 2.44987,0.30663 3.76373,0.4735 -0.73068,1.16749 -1.4782,2.31186 -2.2454,3.42627 -0.0444,0.0644 -0.0898,0.12684 -0.13429,0.19103 -0.79621,-0.0347 -1.56519,-0.0634 -2.31603,-0.0881 0.31979,-1.35638 0.62396,-2.67713 0.93199,-4.00281 z m -43.789561,2.44857 c 2.775289,1.32381 6.438894,1.52231 9.209651,0.10014 -0.067,1.95241 -0.13254,3.90601 -0.20088,5.8569 -2.837887,0.72823 -5.971868,0.78288 -8.763344,-0.0342 -0.01456,-0.004 -0.0289,-0.008 -0.04346,-0.0122 -0.06889,-1.96883 -0.134498,-3.94037 -0.20201,-5.91074 z m 37.231641,2.35133 c 1.40447,-0.001 2.903,0.0198 4.50237,0.0636 -0.39635,1.67599 -0.79476,3.35638 -1.20693,5.08585 -4.0188,0.41222 -7.25363,0.82542 -9.98242,1.24803 0.4234,-2.08644 0.83869,-4.17467 1.24107,-6.26616 1.66407,-0.084 3.46453,-0.12947 5.44591,-0.13139 z m 5.41524,0.0921 c 0.62192,0.0199 1.26,0.0431 1.9137,0.07 -0.91755,1.2927 -1.85872,2.54604 -2.82195,3.75853 0.30693,-1.2897 0.61039,-2.56812 0.90825,-3.82857 z m -73.792414,0.051 c 3.030506,0.0101 5.885226,0.10115 8.62905,0.28133 0.389144,2.01704 0.789075,4.03147 1.197654,6.04386 -2.898619,-0.42852 -6.130004,-0.8433 -9.991693,-1.30127 -0.406685,-1.70663 -0.799358,-3.36363 -1.19072,-5.01813 0.452265,-0.002 0.911173,-0.007 1.355709,-0.006 z m -2.274924,0.009 c 0.298747,1.26399 0.602714,2.54439 0.910556,3.83783 -0.978505,-1.22782 -1.935033,-2.49677 -2.866515,-3.80715 0.658162,-0.0127 1.314431,-0.0246 1.955959,-0.0307 z m 64.284648,0.0312 c -0.40942,2.12357 -0.83259,4.24438 -1.26363,6.3634 -4.11684,0.66913 -7.06552,1.36441 -9.93728,2.114 0.33932,-2.3716 0.66332,-4.7442 0.97883,-7.11766 3.02547,-0.63957 6.2258,-1.1159 10.22208,-1.35974 z m -52.457964,0.30391 c 3.527108,0.25989 6.878081,0.67341 10.190823,1.25612 0.29905,2.24694 0.606859,4.49324 0.927337,6.73851 -3.203616,-0.73837 -6.31035,-1.32484 -9.901396,-1.87378 -0.414863,-2.03848 -0.821851,-4.0782 -1.216764,-6.12085 z m 41.306814,1.26306 c -0.31852,2.38671 -0.64557,4.77287 -0.98812,7.15817 -2.68632,0.71359 -5.42131,1.47634 -9.08401,2.31834 0.0817,-2.30713 0.15918,-4.61564 0.2402,-6.92489 3.63254,-0.96884 6.68794,-1.84605 9.83193,-2.55162 z m -30.188654,0.16035 c 3.248423,0.6039 6.475428,1.37855 9.805264,2.33281 0.08076,2.30129 0.157674,4.60194 0.239087,6.90114 -3.405324,-0.98939 -6.323265,-1.78199 -9.107773,-2.44567 -0.32385,-2.26219 -0.634459,-4.52478 -0.936578,-6.78828 z m 10.709458,2.58576 c 2.824991,0.77535 5.910839,0.72583 8.743086,0.0411 -0.08065,2.29829 -0.15775,4.59553 -0.239052,6.8919 -2.722988,0.56757 -5.632153,0.68896 -8.264387,-0.0278 -0.08143,-2.30076 -0.158827,-4.60249 -0.239647,-6.90521 z m 39.703976,1.61676 c -1.99475,2.34024 -4.07354,4.5048 -6.21927,6.47626 -1.61993,0.66057 -3.23269,1.25987 -4.83925,1.8049 0.50256,-2.35153 0.99454,-4.70552 1.47607,-7.06209 2.62112,-0.41252 5.74426,-0.81599 9.58245,-1.21907 z m -70.681048,0.0243 c 3.698324,0.44211 6.817738,0.84616 9.613694,1.26365 0.468361,2.29099 0.946715,4.5796 1.434993,6.86585 -1.66196,-0.55063 -3.323708,-1.15463 -4.986285,-1.80778 -2.090288,-1.92934 -4.116167,-4.04251 -6.062402,-6.32172 z m 60.152738,1.34759 c -0.49471,2.41522 -0.99994,4.82835 -1.51662,7.23922 -3.18808,1.03684 -6.35204,1.84903 -9.49558,2.44566 0.3868,-2.51697 0.76435,-5.03309 1.12762,-7.54946 2.88942,-0.76068 5.80633,-1.46102 9.88458,-2.13542 z m -49.596093,0.0579 c 3.557991,0.54989 6.641279,1.14054 9.846408,1.88883 0.365139,2.53549 0.745355,5.07075 1.134555,7.60678 -3.172935,-0.61951 -6.339956,-1.44231 -9.506024,-2.45207 -0.502325,-2.34572 -0.993415,-4.6937 -1.474939,-7.04354 z m 10.784733,2.10992 c 2.740911,0.66139 5.623769,1.44899 9.003576,2.4341 0.07281,2.0546 0.144277,4.10722 0.216505,6.16024 -2.703722,-0.19599 -5.399704,-0.54488 -8.090734,-1.03675 -0.387542,-2.51971 -0.765541,-5.03887 -1.129347,-7.55759 z m 27.98611,0.21941 c -0.36051,2.48852 -0.73427,4.97707 -1.11775,7.46669 -2.70473,0.47743 -5.395,0.80093 -8.07393,0.96612 0.0721,-2.05012 0.14326,-4.09988 0.2159,-6.15155 3.6446,-0.83177 6.35184,-1.58048 8.97578,-2.28126 z m -18.07778,2.46593 c 2.669221,0.66978 5.527856,0.5462 8.198981,0.0128 -0.07079,2.00019 -0.140401,3.99868 -0.210703,5.99756 -2.602364,0.12741 -5.194372,0.11179 -7.778718,-0.0435 -0.0699,-1.98865 -0.139113,-3.97692 -0.20956,-5.96688 z m -23.300227,1.79272 c 1.105398,0.40441 2.210818,0.78931 3.316865,1.14846 0.127082,0.59187 0.253873,1.18376 0.382031,1.77539 -1.250739,-0.91062 -2.484316,-1.88594 -3.698896,-2.92385 z m 54.551117,0.18814 c -1.13301,0.9605 -2.28231,1.86569 -3.44652,2.71543 0.11715,-0.54086 0.23336,-1.08204 0.34963,-1.62313 1.02999,-0.3417 2.06206,-0.70387 3.09689,-1.0923 z m -50.252509,1.26828 c 3.138803,0.98066 6.281124,1.7777 9.431343,2.37854 0.263854,1.70742 0.532345,3.41532 0.805776,5.12405 -3.321838,-1.29926 -6.588228,-3.07262 -9.754946,-5.26586 -0.162177,-0.74526 -0.321688,-1.49116 -0.482173,-2.23673 z m 46.170409,0.14414 c -0.14905,0.69183 -0.29756,1.38365 -0.44807,2.07522 -3.1674,2.19914 -6.43453,3.9768 -9.75723,5.27919 0.26606,-1.6627 0.52786,-3.32489 0.78493,-4.98632 3.12078,-0.57716 6.25957,-1.36341 9.42037,-2.36809 z m -35.805927,2.40574 c 2.653393,0.47334 5.312745,0.8078 7.980129,0.99736 0.07225,2.05709 0.145789,4.11732 0.216505,6.17299 -2.468164,-0.34793 -4.926749,-0.97333 -7.358462,-1.85411 -0.284611,-1.77298 -0.563878,-3.54493 -0.838172,-5.31624 z m 25.455317,0.12907 c -0.26777,1.72689 -0.54044,3.45459 -0.8179,5.18311 -2.43233,0.88302 -4.89151,1.5098 -7.36021,1.85817 0.0701,-2.03697 0.14318,-4.0785 0.21475,-6.11682 2.64282,-0.1591 5.29684,-0.46624 7.96336,-0.92446 z m -16.577379,0.92792 c 2.563534,0.15077 5.134886,0.16536 7.716214,0.0422 -0.07236,2.06118 -0.14626,4.12523 -0.217065,6.1851 -1.220718,0.13855 -2.442652,0.21532 -3.664781,0.21419 -1.205574,-0.001 -2.411438,-0.0787 -3.615556,-0.21534 -0.07124,-2.07357 -0.145968,-4.15134 -0.218812,-6.22622 z" />
  </g>
</svg>
