<?xml version="1.0" encoding="UTF-8" standalone="no"?>
<!-- Created with Inkscape (http://www.inkscape.org/) -->

<svg
   width="48.553783mm"
   height="43.890034mm"
   viewBox="0 0 48.553785 43.890036"
   version="1.1"
   id="svg34153"
   xmlns="http://www.w3.org/2000/svg"
   xmlns:svg="http://www.w3.org/2000/svg">
  <defs
     id="defs34150" />
  <g
     id="layer1"
     transform="translate(-38.470096,-111.27437)">
    <path
       style="fill:#000000;stroke-width:0.999996"
       d="m 60.678903,155.06299 c -3.740736,-0.59509 -7.274038,-2.59354 -9.594538,-5.42671 -1.718504,-2.0982 -3.073825,-5.33784 -3.313935,-7.92139 l -0.119725,-1.28814 -1.316003,-0.71783 c -5.353712,-2.92029 -8.518416,-8.97323 -7.750453,-14.82382 0.265644,-2.02378 1.073938,-4.48271 1.971173,-5.99655 1.362923,-2.29956 4.228072,-4.88329 6.625544,-5.97475 0.846635,-0.38544 4.852362,-1.63943 5.236965,-1.63943 0.068,0 0.124366,1.11163 0.125159,2.47028 0.0026,3.32625 0.239432,4.6763 1.150099,6.53896 1.642712,3.35996 4.733421,5.43304 8.438917,5.6604 4.059508,0.24908 7.886718,-1.96251 9.663151,-5.58394 0.906659,-1.84831 1.089809,-2.90754 1.089809,-6.3028 0,-1.53059 0.07214,-2.7829 0.160144,-2.7829 0.376684,0 4.280594,1.16935 5.153299,1.54357 1.576169,0.67588 3.502457,2.07227 4.798476,3.47847 2.728558,2.96053 4.022509,6.26504 4.026886,10.28397 0.0062,5.55966 -2.839574,10.33915 -7.78987,13.0838 l -1.408389,0.78087 -0.130637,1.31574 c -0.613298,6.17684 -5.386469,11.60032 -11.446216,13.00567 -1.604442,0.37209 -4.219626,0.51132 -5.569856,0.29653 z m 4.553151,-5.10837 c 4.294748,-1.14512 7.653012,-5.30998 7.653012,-9.49112 0,-2.28575 0.94279,-3.60858 3.436232,-4.82138 6.35539,-3.09121 7.803388,-11.11848 2.910228,-16.13344 -0.67586,-0.69267 -1.312269,-1.2588 -1.414255,-1.25804 -0.101977,5.4e-4 -0.336723,0.63285 -0.52167,1.40466 -0.967213,4.03636 -4.120035,7.87694 -7.997292,9.74182 -2.132198,1.02555 -4.044314,1.4457 -6.57947,1.4457 -4.44116,0 -7.885486,-1.51824 -11.031746,-4.86274 -1.66157,-1.76626 -2.993418,-4.18647 -3.534615,-6.42302 -0.174051,-0.71929 -0.375874,-1.3078 -0.448486,-1.3078 -0.07258,0 -0.631424,0.49543 -1.241797,1.10094 -3.200032,3.17462 -3.941113,7.73512 -1.913544,11.77584 0.904414,1.80245 2.629074,3.51315 4.408659,4.37299 0.745926,0.36041 1.637428,0.86388 1.981127,1.11884 0.917149,0.68034 1.544073,2.16419 1.69385,4.00917 0.367462,4.52638 3.304034,8.15744 7.514042,9.29111 1.30184,0.35055 3.839515,0.36875 5.085725,0.0365 z"
       id="path58477" />
  </g>
</svg>
